<svg width="60" height="45" viewBox="0 0 60 45" fill="none" xmlns="http://www.w3.org/2000/svg">
<path d="M56.8696 18.6C56.6087 18.3 56.3478 18 56.087 17.7C55.3043 17.1 54.7826 16.5 54.2609 15.6C51.913 13.5 49.3043 12.3 46.4348 12C44.8696 6 40.6957 1.5 35.4783 0.3C34.9565 0.3 34.4348 0 33.913 0C33.3913 0 32.8696 0 32.3478 0C25.8261 0 20.087 5.4 18.7826 12.9C17.2174 12.3 15.913 12 14.3478 12C6.52174 12 0 19.5 0 28.5C0 37.5 6.52174 45 14.3478 45H45.6522C53.4783 45 60 37.5 60 28.5C60 24.6 58.9565 21.3 56.8696 18.6ZM57.3913 28.5C57.3913 36 52.1739 42 45.6522 42H14.3478C7.82609 42 2.6087 36 2.6087 28.5C2.6087 21 7.82609 15 14.3478 15C15.913 15 17.7391 15.3 19.0435 16.2C19.3043 16.5 19.8261 16.5 20.3478 16.2C20.6087 15.9 20.8696 15.6 21.1304 15C21.913 8.1 26.8696 3 32.6087 3C38.087 3 43.0435 7.5 44.087 13.8C44.3478 14.4 44.8696 15 45.3913 15H45.6522C52.1739 15 57.3913 21 57.3913 28.5Z" fill="#231F20"/>
</svg>
