<svg width="60" height="45" viewBox="0 0 60 45" fill="none" xmlns="http://www.w3.org/2000/svg">
<path d="M12.6923 45H40.3846C47.0769 45 53.0769 38.3684 53.0769 30.7895C53.0769 29.3684 52.8462 28.1842 52.6154 26.7632C57 25.5789 60 21.7895 60 17.0526C60 11.8421 56.0769 7.57895 51 7.10526C49.8462 2.84211 45.9231 0 41.5385 0C36.9231 0 33.2308 3.07895 32.0769 7.57895C31.1538 7.34211 30 7.10526 28.8462 7.10526C22.8462 7.10526 17.7692 11.3684 16.6154 17.2895C15.2308 16.8158 14.0769 16.5789 12.6923 16.5789C6 16.5789 0 23.2105 0 30.7895C0 38.3684 6 45 12.6923 45ZM41.5385 2.36842C45 2.36842 48.2308 4.97368 48.9231 8.52632C48.9231 9 49.6154 9.47368 50.3077 9.47368C54.2308 9.47368 57.6923 13.0263 57.6923 17.2895C57.6923 20.8421 55.1538 23.9211 51.6923 24.8684C49.6154 20.3684 45.6923 17.0526 41.0769 16.8158C40.1538 13.2632 37.6154 10.1842 34.3846 8.52632C35.0769 4.97368 38.0769 2.36842 41.5385 2.36842ZM12.6923 18.9474C14.0769 18.9474 15.6923 19.1842 16.8462 19.8947C17.0769 20.1316 17.5385 20.1316 18 19.8947C18.2308 19.6579 18.4615 19.4211 18.6923 18.9474C19.3846 13.5 23.7692 9.47368 28.8462 9.47368C33.6923 9.47368 38.0769 13.0263 39 18C39.2308 18.4737 39.6923 18.9474 40.1538 18.9474H40.3846C46.3846 18.9474 50.7692 25.1053 50.7692 30.7895C50.7692 36.4737 46.3846 42.6316 40.3846 42.6316H12.6923C6.69231 42.6316 2.30769 36.4737 2.30769 30.7895C2.30769 25.1053 6.69231 18.9474 12.6923 18.9474Z" fill="#231F20"/>
</svg>
