<svg width="75" height="60" viewBox="0 0 75 60" fill="none" xmlns="http://www.w3.org/2000/svg">
<g clip-path="url(#clip0)">
<path d="M46.3538 7.65957C47.1351 7.65957 47.6559 7.14894 47.6559 6.38298V1.2766C47.6559 0.510638 46.8747 0 46.3538 0C45.5726 0 45.0518 0.510638 45.0518 1.2766V6.38298C45.0518 7.14894 45.5726 7.65957 46.3538 7.65957Z" fill="#231F20"/>
<path d="M73.6977 26.8085H68.4893C67.7081 26.8085 67.1873 27.3191 67.1873 28.0851C67.1873 28.851 67.7081 29.3617 68.4893 29.3617H73.6977C74.4789 29.3617 74.9998 28.851 74.9998 28.0851C74.9998 27.3191 74.2185 26.8085 73.6977 26.8085Z" fill="#231F20"/>
<path d="M45.5729 60.0001C53.3854 60.0001 59.8958 53.3618 59.8958 45.7022C59.8958 42.3831 58.5938 39.3192 56.7708 37.0214C59.8958 34.2129 61.9792 30.1277 61.9792 26.0426C61.9792 17.8724 55.2083 11.2341 46.875 11.2341C40.3646 11.2341 34.6354 15.3192 32.5521 21.4469C25.7813 21.4469 20.3125 26.0426 18.75 32.4256C17.4479 31.915 15.8854 31.6597 14.3229 31.6597C6.51042 31.6597 0 38.298 0 45.9575C0 53.8724 6.51042 60.2554 14.3229 60.2554H45.5729V60.0001ZM46.6146 13.2767C53.6458 13.2767 59.1146 18.8937 59.1146 25.532C59.1146 29.1065 57.5521 32.4256 54.9479 34.7235C52.6042 32.6809 49.4792 31.149 46.3542 30.8937C44.7917 25.7873 40.3646 21.9575 35.1562 20.9363C36.9792 16.5958 41.6667 13.2767 46.6146 13.2767ZM2.60417 45.7022C2.60417 39.3192 8.07292 33.9575 14.3229 33.9575C15.8854 33.9575 17.7083 34.2129 19.0104 34.9788C19.2708 35.2341 19.7917 35.2341 20.3125 34.9788C20.5729 34.7235 20.8333 34.4682 20.8333 33.9575C21.6146 28.0852 26.5625 23.7448 32.2917 23.7448C37.7604 23.7448 42.7083 27.5746 43.75 32.9363C43.75 33.4469 44.5312 33.9575 45.0521 33.9575H45.3125C51.5625 33.9575 57.0312 39.3192 57.0312 45.7022C57.0312 52.0852 51.5625 57.4469 45.3125 57.4469H14.0625C8.07292 57.4469 2.60417 52.0852 2.60417 45.7022Z" fill="#231F20"/>
<path d="M30.2082 13.532C30.4686 13.7874 30.729 13.7874 31.2498 13.7874C31.5103 13.7874 32.0311 13.7874 32.2915 13.532C32.8123 13.0214 32.8123 12.2554 32.2915 11.7448L28.6457 8.17033C28.1248 7.65969 27.3436 7.65969 26.8228 8.17033C26.3019 8.68097 26.3019 9.44693 26.8228 9.95757L30.2082 13.532Z" fill="#231F20"/>
<path d="M62.4998 13.7874C62.7602 13.7874 63.281 13.7874 63.5414 13.532L67.1872 9.95757C67.7081 9.44693 67.7081 8.68097 67.1872 8.17033C66.6664 7.65969 65.8852 7.65969 65.3643 8.17033L61.7185 11.7448C61.1977 12.2554 61.1977 13.0214 61.7185 13.532C61.9789 13.7874 62.2393 13.7874 62.4998 13.7874Z" fill="#231F20"/>
<path d="M63.0207 40.5959L66.6665 44.1703C66.927 44.4257 67.1874 44.4257 67.7082 44.4257C67.9686 44.4257 68.4894 44.4257 68.7499 44.1703C69.2707 43.6597 69.2707 42.8937 68.7499 42.3831L65.104 38.8086C64.5832 38.298 63.802 38.298 63.2811 38.8086C62.4999 39.3193 62.4999 40.0852 63.0207 40.5959Z" fill="#231F20"/>
</g>
<defs>
<clipPath id="clip0">
<rect width="75" height="60" fill="white"/>
</clipPath>
</defs>
</svg>
