<svg width="27" height="17" viewBox="0 0 27 17" fill="none" xmlns="http://www.w3.org/2000/svg">
<g clip-path="url(#clip0)">
<path d="M13 5.40002C13.3 5.40002 13.5 5.20002 13.5 4.90002V0.900024C13.5 0.600024 13.3 0.400024 13 0.400024C12.7 0.400024 12.5 0.600024 12.5 0.900024V4.90002C12.5 5.20002 12.7 5.40002 13 5.40002Z" fill="#231F20"/>
<path d="M23.8001 5.20005L21.0001 8.00005C20.8001 8.20005 20.8001 8.50005 21.0001 8.70005C21.1001 8.80005 21.2001 8.80005 21.4001 8.80005C21.5001 8.80005 21.7001 8.80005 21.8001 8.70005L24.6001 5.90005C24.8001 5.70005 24.8001 5.40005 24.6001 5.20005C24.3001 5.00005 23.9001 5.00005 23.8001 5.20005Z" fill="#231F20"/>
<path d="M2.5001 5.20005C2.3001 5.40005 2.3001 5.70005 2.5001 5.90005L5.3001 8.70005C5.4001 8.80005 5.5001 8.80005 5.7001 8.80005C5.9001 8.80005 6.0001 8.80005 6.1001 8.70005C6.3001 8.50005 6.3001 8.20005 6.1001 8.00005L3.2001 5.20005C3.1001 5.00005 2.7001 5.00005 2.5001 5.20005Z" fill="#231F20"/>
<path d="M26.5 15.9H21.5C21.4 11.6 17.8 8.09998 13.5 8.09998C9.2 8.09998 5.6 11.6 5.5 15.9H0.5C0.2 15.9 0 16.1 0 16.4C0 16.7 0.2 16.9 0.5 16.9H26.5C26.8 16.9 27 16.7 27 16.4C27 16.1 26.8 15.9 26.5 15.9ZM13.5 9.19998C17.3 9.19998 20.4 12.2 20.5 16H6.5C6.6 12.2 9.7 9.19998 13.5 9.19998Z" fill="#231F20"/>
</g>
<defs>
<clipPath id="clip0">
<rect width="27" height="16.5" fill="white" transform="translate(0 0.400024)"/>
</clipPath>
</defs>
</svg>
