<svg width="60" height="60" viewBox="0 0 60 60" fill="none" xmlns="http://www.w3.org/2000/svg">
<path d="M46.5516 9.63855C44.7412 4.09639 39.3102 0 32.8447 0C26.3792 0 20.6895 4.33735 19.1378 10.3614C17.8447 9.87952 16.293 9.63855 14.7412 9.63855C6.98261 9.63855 0.51709 16.1446 0.51709 23.6145C0.51709 31.0843 6.98261 37.5904 14.7412 37.5904H45.7757C53.5343 37.5904 59.9998 31.0843 59.9998 23.6145C59.9998 16.3855 54.0516 10.1205 46.5516 9.63855ZM45.7757 35.1807H14.7412C8.53433 35.1807 3.1033 29.8795 3.1033 23.6145C3.1033 17.3494 8.79295 12.0482 14.7412 12.0482C16.5516 12.0482 18.1033 12.2892 19.655 13.012C19.9136 13.253 20.4309 13.253 20.9481 13.012C21.2067 12.7711 21.4654 12.5301 21.4654 12.0482C22.2412 6.50602 27.155 2.40964 32.8447 2.40964C38.2757 2.40964 43.1895 6.0241 44.224 11.0843C44.224 11.5663 44.9998 12.0482 45.5171 12.0482H45.7757C51.9826 12.0482 57.4136 17.3494 57.4136 23.6145C57.4136 29.6386 51.9826 35.1807 45.7757 35.1807Z" fill="#231F20"/>
<path d="M16.0344 59.5181C16.293 59.7591 16.5517 59.7591 16.8103 59.7591C17.0689 59.7591 17.5861 59.5181 17.8448 59.2771L26.1206 51.3253C26.3792 51.0844 26.6379 50.3615 26.3792 50.1205C26.1206 49.6386 25.6034 49.3976 25.0861 49.3976H21.9827L27.1551 44.8193C27.6723 44.3374 27.6723 43.6145 27.1551 43.1326C26.6379 42.6506 25.862 42.6506 25.3448 43.1326L17.8448 49.6386C17.3275 49.8796 17.3275 50.6024 17.5861 50.8434C17.8448 51.3253 18.362 51.5663 18.8792 51.5663H22.2413L16.0344 57.8314C15.5172 58.3133 15.5172 59.0362 16.0344 59.5181Z" fill="#231F20"/>
<path d="M37.2412 50.3615L43.7068 44.3374C44.224 43.8554 44.224 43.1326 43.7068 42.6506C43.1895 42.1687 42.4137 42.1687 41.8964 42.6506L35.4309 48.6747C34.9137 49.1567 34.9137 49.8795 35.4309 50.3615C35.6895 50.6024 35.9481 50.6024 36.4654 50.6024C36.4654 50.6024 36.9826 50.3615 37.2412 50.3615Z" fill="#231F20"/>
<path d="M30.7759 56.3856L33.3621 53.9759C33.8794 53.494 33.8794 52.7711 33.3621 52.2892C32.8449 51.8073 32.069 51.8073 31.5518 52.2892L28.9656 54.6988C28.4483 55.1808 28.4483 55.9036 28.9656 56.3856C29.2242 56.6265 29.4828 56.6265 30.0001 56.6265C30.0001 56.6265 30.5173 56.6265 30.7759 56.3856Z" fill="#231F20"/>
<path d="M8.793 50.3615L15.2585 44.3374C15.7758 43.8554 15.7758 43.1326 15.2585 42.6506C14.7413 42.1687 13.9654 42.1687 13.4482 42.6506L6.98266 48.6747C6.46542 49.1567 6.46542 49.8795 6.98266 50.3615C6.98266 50.3615 7.4999 50.6024 7.75852 50.6024C8.01714 50.6024 8.53438 50.3615 8.793 50.3615Z" fill="#231F20"/>
<path d="M2.32767 56.3856L4.91388 53.9759C5.43112 53.494 5.43112 52.7711 4.91388 52.2892C4.39664 51.8073 3.62077 51.8073 3.10353 52.2892L0.517326 54.6988C8.41916e-05 55.1808 8.41916e-05 55.9036 0.517326 56.3856C0.775946 56.6265 1.03457 56.6265 1.55181 56.6265C1.55181 56.6265 2.06905 56.6265 2.32767 56.3856Z" fill="#231F20"/>
</svg>
