<svg width="60" height="60" viewBox="0 0 60 60" fill="none" xmlns="http://www.w3.org/2000/svg">
<path d="M46.4348 9.91736C44.6087 4.21488 39.1304 0 32.6087 0C25.8261 0 20.087 4.46281 18.7826 10.6612C17.2174 10.1653 15.913 9.91736 14.3478 9.91736C6.78261 9.91736 0 16.8595 0 24.7934C0 32.7273 6.78261 39.6694 14.3478 39.6694H45.6522C53.2174 39.6694 60 32.7273 60 24.7934C60 17.1074 53.7391 10.4132 46.4348 9.91736ZM45.6522 37.438H14.3478C7.56522 37.438 2.6087 30.7438 2.6087 25.0413C2.6087 19.3388 7.56522 12.6446 14.3478 12.6446C15.913 12.6446 17.7391 12.8926 19.0435 13.6364C19.3043 13.8843 19.8261 13.8843 20.3478 13.6364C20.6087 13.1405 20.8696 12.8926 21.1304 12.3967C21.913 6.69422 26.8696 2.47934 32.6087 2.47934C38.087 2.47934 43.0435 6.19835 44.087 11.405C44.3478 11.9008 44.8696 12.3967 45.3913 12.3967H45.6522C52.4348 12.3967 57.3913 19.0909 57.3913 24.7934C57.3913 30.4959 52.4348 37.438 45.6522 37.438Z" fill="#231F20"/>
<path d="M20.8698 59.752C21.1307 60 21.3916 60 21.9133 60C22.1742 60 22.6959 60 22.9568 59.752L31.3046 52.0661C31.5655 51.8181 31.8263 51.0743 31.5655 50.8264C31.3046 50.3305 30.7829 50.0826 30.2611 50.0826H26.8698L32.3481 44.876C32.8698 44.3801 32.8698 43.6363 32.3481 43.1405C31.8263 42.6446 31.0437 42.6446 30.522 43.1405L22.9568 50.5785C22.6959 50.8264 22.435 51.5702 22.6959 51.8181C22.435 52.0661 22.9568 52.314 23.4785 52.314H26.8698L20.8698 58.0165C20.3481 58.5124 20.3481 59.2562 20.8698 59.752Z" fill="#231F20"/>
</svg>
