<svg width="50" height="60" viewBox="0 0 50 60" fill="none" xmlns="http://www.w3.org/2000/svg">
<path d="M25 0C16.3043 0 0 1.65138 0 8.25688C0 14.8624 16.3043 16.5138 25 16.5138C33.6957 16.5138 50 14.8624 50 8.25688C50 1.65138 33.6957 0 25 0ZM25 13.7615C10.2174 13.7615 2.17391 10.1835 2.17391 8.25688C2.17391 6.33028 10.2174 2.75229 25 2.75229C39.7826 2.75229 47.8261 6.33028 47.8261 8.25688C47.8261 10.1835 39.7826 13.7615 25 13.7615Z" fill="#231F20"/>
<path d="M45.2175 20.6422C44.5654 20.6422 44.1306 21.1927 44.1306 22.0184C44.1306 23.1193 38.0436 26.422 25.0001 26.422C11.9567 26.422 6.08711 23.1193 5.86971 22.0184C5.86971 21.1927 5.43493 20.6422 4.78276 20.6422C4.13058 20.6422 3.6958 21.1927 3.6958 22.0184C3.6958 27.7982 17.6088 29.1743 25.0001 29.1743C32.3915 29.1743 46.3045 27.7982 46.3045 22.0184C46.3045 21.1927 45.8697 20.9174 45.2175 20.6422Z" fill="#231F20"/>
<path d="M36.3045 35.7798C36.3045 34.9541 35.8697 34.4037 35.2175 34.4037C34.7828 34.4037 34.348 34.9541 34.1306 35.5046C33.4784 36.0551 30.4349 37.4312 25.0001 37.4312C19.7828 37.4312 16.5219 36.3303 15.8697 35.5046C15.8697 34.9541 15.4349 34.4037 14.7828 34.4037C14.1306 34.4037 13.6958 34.9541 13.6958 35.7798C13.6958 39.9083 23.0436 40.1835 25.0001 40.1835C26.9567 40.1835 36.3045 39.9083 36.3045 35.7798Z" fill="#231F20"/>
<path d="M24.9998 59.9999C25.4346 59.9999 25.652 59.7247 25.8694 59.4495L31.5216 47.3394C31.7389 46.7889 31.7389 45.9632 31.0868 45.4128C30.652 45.1375 29.9998 45.1375 29.565 45.9632L24.7824 56.1467L19.9998 46.2385C19.7824 45.688 19.1302 45.4128 18.4781 45.688C18.0433 45.9632 17.8259 46.7889 18.0433 47.6146L23.6955 59.7247C24.3476 59.7247 24.565 59.9999 24.9998 59.9999Z" fill="#231F20"/>
</svg>
