<svg width="60" height="60" viewBox="0 0 60 60" fill="none" xmlns="http://www.w3.org/2000/svg">
<path d="M14.3478 42.6667H45.6522C53.2174 42.6667 60 35.2 60 26.6667C60 18.4 53.7391 11.2 46.4348 10.6667C44.6087 4.53333 39.1304 0 32.6087 0C25.8261 0 20.087 4.8 18.7826 11.4667C17.2174 10.9333 15.913 10.6667 14.3478 10.6667C6.78261 10.6667 0 18.1333 0 26.6667C0 35.2 6.78261 42.6667 14.3478 42.6667ZM14.3478 13.3333C15.913 13.3333 17.7391 13.6 19.0435 14.4C19.3043 14.6667 19.8261 14.6667 20.3478 14.4C20.6087 14.1333 20.8696 13.8667 21.1304 13.3333C21.913 7.2 26.8696 2.66667 32.6087 2.66667C38.087 2.66667 43.0435 6.66667 44.087 12.2667C44.3478 12.8 44.8696 13.3333 45.3913 13.3333H45.6522C52.4348 13.3333 57.3913 20.2667 57.3913 26.6667C57.3913 33.0667 52.4348 40 45.6522 40H14.3478C7.56522 40 2.6087 33.0667 2.6087 26.6667C2.6087 20.2667 7.56522 13.3333 14.3478 13.3333Z" fill="#231F20"/>
<path d="M22.174 54.6667C22.8943 54.6667 23.4783 54.0697 23.4783 53.3333C23.4783 52.597 22.8943 52 22.174 52C21.4536 52 20.8696 52.597 20.8696 53.3333C20.8696 54.0697 21.4536 54.6667 22.174 54.6667Z" fill="#231F20"/>
<path d="M35.2174 54.6667C35.9378 54.6667 36.5218 54.0697 36.5218 53.3333C36.5218 52.597 35.9378 52 35.2174 52C34.4971 52 33.9131 52.597 33.9131 53.3333C33.9131 54.0697 34.4971 54.6667 35.2174 54.6667Z" fill="#231F20"/>
<path d="M29.9999 49.3333C30.7203 49.3333 31.3043 48.7363 31.3043 48C31.3043 47.2636 30.7203 46.6666 29.9999 46.6666C29.2795 46.6666 28.6956 47.2636 28.6956 48C28.6956 48.7363 29.2795 49.3333 29.9999 49.3333Z" fill="#231F20"/>
<path d="M43.0434 49.3333C43.7637 49.3333 44.3477 48.7363 44.3477 48C44.3477 47.2636 43.7637 46.6666 43.0434 46.6666C42.323 46.6666 41.739 47.2636 41.739 48C41.739 48.7363 42.323 49.3333 43.0434 49.3333Z" fill="#231F20"/>
<path d="M27.3913 60C28.1116 60 28.6956 59.4031 28.6956 58.6667C28.6956 57.9303 28.1116 57.3334 27.3913 57.3334C26.6709 57.3334 26.0869 57.9303 26.0869 58.6667C26.0869 59.4031 26.6709 60 27.3913 60Z" fill="#231F20"/>
<path d="M16.9564 49.3333C17.6768 49.3333 18.2608 48.7363 18.2608 48C18.2608 47.2636 17.6768 46.6666 16.9564 46.6666C16.2361 46.6666 15.6521 47.2636 15.6521 48C15.6521 48.7363 16.2361 49.3333 16.9564 49.3333Z" fill="#231F20"/>
</svg>
