<svg width="60" height="50" viewBox="0 0 60 50" fill="none" xmlns="http://www.w3.org/2000/svg">
<path d="M12.6923 50H40.3846C47.0769 50 53.0769 42.6316 53.0769 34.2105C53.0769 32.6316 52.8462 31.3158 52.6154 29.7368C57 28.4211 60 24.2105 60 18.9474C60 13.1579 56.0769 8.42105 51 7.89474C49.8462 3.15789 45.9231 0 41.5385 0C36.9231 0 33.2308 3.42105 32.0769 8.42105C31.1538 8.1579 30 7.89474 28.8462 7.89474C22.8462 7.89474 17.7692 12.6316 16.6154 19.2105C15.2308 18.6842 14.0769 18.4211 12.6923 18.4211C6 18.4211 0 25.7895 0 34.2105C0 42.6316 6 50 12.6923 50ZM41.5385 2.63158C45 2.63158 48.2308 5.52632 48.9231 9.47368C48.9231 10 49.6154 10.5263 50.3077 10.5263C54.2308 10.5263 57.6923 14.4737 57.6923 19.2105C57.6923 23.1579 55.1538 26.5789 51.6923 27.6316C49.6154 22.6316 45.6923 18.9474 41.0769 18.6842C40.1538 14.7368 37.6154 11.3158 34.3846 9.47368C35.0769 5.52632 38.0769 2.63158 41.5385 2.63158ZM12.6923 21.0526C14.0769 21.0526 15.6923 21.3158 16.8462 22.1053C17.0769 22.3684 17.5385 22.3684 18 22.1053C18.2308 21.8421 18.4615 21.5789 18.6923 21.0526C19.3846 15 23.7692 10.5263 28.8462 10.5263C33.6923 10.5263 38.0769 14.4737 39 20C39.2308 20.5263 39.6923 21.0526 40.1538 21.0526H40.3846C46.3846 21.0526 50.7692 27.8947 50.7692 34.2105C50.7692 40.5263 46.3846 47.3684 40.3846 47.3684H12.6923C6.69231 47.3684 2.30769 40.5263 2.30769 34.2105C2.30769 27.8947 6.69231 21.0526 12.6923 21.0526Z" fill="#231F20"/>
</svg>
