<svg width="80" height="80" viewBox="0 0 80 80" fill="none" xmlns="http://www.w3.org/2000/svg">
<path d="M40.516 60.1291C51.8708 60.1291 61.1612 50.8387 61.1612 39.4839C61.1612 28.1291 51.8708 18.8387 40.516 18.8387C29.1612 18.8387 19.8708 28.1291 19.8708 39.4839C19.8708 50.8387 29.1612 60.1291 40.516 60.1291ZM40.516 21.4194C50.5805 21.4194 58.5805 29.4194 58.5805 39.4839C58.5805 49.5484 50.5805 57.5484 40.516 57.5484C30.4515 57.5484 22.4515 49.5484 22.4515 39.4839C22.4515 29.4194 30.4515 21.4194 40.516 21.4194Z" fill="#231F20"/>
<path d="M38.7098 12.9032C39.484 12.9032 40.0001 12.3871 40.0001 11.6129V1.29032C40.0001 0.516129 39.484 0 38.7098 0C37.9356 0 37.4194 0.516129 37.4194 1.29032V11.6129C37.4194 12.3871 37.9356 12.9032 38.7098 12.9032Z" fill="#231F20"/>
<path d="M40.0001 78.7097V68.3871C40.0001 67.6129 39.484 67.0968 38.7098 67.0968C37.9356 67.0968 37.4194 67.6129 37.4194 68.3871V78.7097C37.4194 79.4839 37.9356 80 38.7098 80C39.484 80 40.0001 79.4839 40.0001 78.7097Z" fill="#231F20"/>
<path d="M12.9032 41.2903C12.9032 40.5161 12.3871 40 11.6129 40H1.29032C0.516129 40 0 40.5161 0 41.2903C0 42.0645 0.516129 42.5806 1.29032 42.5806H11.6129C12.3871 42.5806 12.9032 42.0645 12.9032 41.2903Z" fill="#231F20"/>
<path d="M78.7096 40H68.387C67.6128 40 67.0967 40.5161 67.0967 41.2903C67.0967 42.0645 67.6128 42.5806 68.387 42.5806H78.7096C79.4838 42.5806 79.9999 42.0645 79.9999 41.2903C79.9999 40.5161 79.4838 40 78.7096 40Z" fill="#231F20"/>
<path d="M14.4516 67.871L21.6774 60.6452C22.1935 60.1291 22.1935 59.3549 21.6774 58.8388C21.1613 58.3226 20.3871 58.3226 19.871 58.8388L12.6452 66.0646C12.129 66.5807 12.129 67.3549 12.6452 67.871C12.9032 68.1291 13.1613 68.1291 13.6774 68.1291C13.9355 68.1291 14.1935 68.1291 14.4516 67.871Z" fill="#231F20"/>
<path d="M60.903 20.9031C61.1611 20.9031 61.6772 20.9031 61.9352 20.6451L69.1611 13.4193C69.6772 12.9031 69.6772 12.1289 69.1611 11.6128C68.6449 11.0967 67.8707 11.0967 67.3546 11.6128L60.1288 18.8386C59.6127 19.3547 59.6127 20.1289 60.1288 20.6451C60.3869 20.6451 60.6449 20.9031 60.903 20.9031Z" fill="#231F20"/>
<path d="M61.9352 58.8388C61.4191 58.3226 60.6449 58.3226 60.1288 58.8388C59.6127 59.3549 59.6127 60.1291 60.1288 60.6452L67.3546 67.871C67.6127 68.1291 67.8707 68.1291 68.3869 68.1291C68.6449 68.1291 69.1611 68.1291 69.4191 67.871C69.9352 67.3549 69.9352 66.5807 69.4191 66.0646L61.9352 58.8388Z" fill="#231F20"/>
<path d="M19.871 20.3871C20.129 20.6452 20.3871 20.9033 20.9032 20.9033C21.1613 20.9033 21.6774 20.9033 21.9355 20.6452C22.4516 20.1291 22.4516 19.3549 21.9355 18.8387L14.4516 11.3549C13.9355 10.8387 13.1613 10.8387 12.6452 11.3549C12.129 11.871 12.129 12.6452 12.6452 13.1613L19.871 20.3871Z" fill="#231F20"/>
</svg>
