<svg width="66" height="54" viewBox="0 0 66 54" fill="none" xmlns="http://www.w3.org/2000/svg">
<g clip-path="url(#clip0)">
<path d="M9.42861 27C10.3715 27 11 26.3647 11 25.4118C11 13.0235 20.7429 3.17647 33 3.17647C45.2572 3.17647 55 13.0235 55 25.4118C55 26.3647 55.6286 27 56.5715 27C57.5143 27 58.1429 26.3647 58.1429 25.4118C58.1429 11.4353 46.8286 0 33 0C19.1715 0 7.85718 11.4353 7.85718 25.4118C7.85718 26.3647 8.48575 27 9.42861 27Z" fill="#231F20"/>
<path d="M49.9719 47.3295C50.6005 46.6942 50.6005 45.7413 49.9719 45.106C49.3433 44.4707 48.4005 44.4707 47.7719 45.106C43.6862 48.9178 38.3433 50.8236 33.0005 50.8236C27.6576 50.8236 22.3148 48.9178 18.229 45.106C17.6005 44.4707 16.6576 44.4707 16.029 45.106C15.4005 45.7413 15.4005 46.6942 16.029 47.3295C20.7433 51.4589 26.7148 54.0001 33.0005 54.0001C39.2862 54.0001 45.2576 51.7766 49.9719 47.3295Z" fill="#231F20"/>
<path d="M1.57143 34.9411H64.4286C65.3714 34.9411 66 34.3058 66 33.3529C66 32.3999 65.3714 31.7646 64.4286 31.7646H1.57143C0.628571 31.7646 0 32.3999 0 33.3529C0 34.3058 0.628571 34.9411 1.57143 34.9411Z" fill="#231F20"/>
<path d="M54.9999 38.1177H10.9999C10.057 38.1177 9.42847 38.753 9.42847 39.7059C9.42847 40.6589 10.057 41.2941 10.9999 41.2941H54.9999C55.9428 41.2941 56.5713 40.6589 56.5713 39.7059C56.5713 38.753 55.9428 38.1177 54.9999 38.1177Z" fill="#231F20"/>
</g>
<defs>
<clipPath id="clip0">
<rect width="66" height="54" fill="white"/>
</clipPath>
</defs>
</svg>
