<svg width="15" height="22" viewBox="0 0 15 22" fill="none" xmlns="http://www.w3.org/2000/svg">
<path d="M6.81818 0.339041C6.21212 1.39384 0 10.7363 0 14.5034C0 18.5719 3.33333 21.887 7.42424 21.887C11.5152 21.887 14.8485 18.5719 14.8485 14.5034C14.8485 10.7363 8.63636 1.39384 8.0303 0.339041C7.87879 -0.113014 7.12121 -0.113014 6.81818 0.339041ZM7.42424 20.5308C4.24242 20.5308 1.51515 17.8185 1.51515 14.5034C1.51515 11.9418 5.30303 5.46233 7.42424 2.14726C9.54545 5.46233 13.3333 11.9418 13.3333 14.5034C13.4848 17.8185 10.7576 20.5308 7.42424 20.5308Z" fill="#231F20"/>
</svg>
