<svg width="15" height="16" viewBox="0 0 15 16" fill="none" xmlns="http://www.w3.org/2000/svg">
<path d="M3.91733 13.15C2.90459 12.3704 2.20714 11.3638 1.7581 10.0217C1.51924 9.32106 1.49058 9.08422 1.49058 7.99869C1.48103 6.91317 1.51924 6.67632 1.73899 6.01514C2.42689 4.00198 3.74536 2.61054 5.65618 1.90001C6.26765 1.67304 6.49695 1.64343 7.5479 1.64343C8.59886 1.64343 8.82816 1.67304 9.43962 1.90001C10.395 2.25527 11.0925 2.70922 11.7899 3.40988C12.5065 4.13027 12.9842 4.92961 13.3473 5.97567C13.5766 6.67632 13.6148 6.9033 13.6148 7.99869C13.6148 9.04474 13.5766 9.3408 13.3855 9.92303C12.946 11.2849 12.1434 12.4296 11.1403 13.1796L10.5288 13.6237H7.53835H4.53835L3.91733 13.15ZM6.78357 11.8178C6.78357 11.7487 6.82179 11.1171 6.87911 10.4066C7.23262 5.42304 7.1944 5.63027 7.58612 5.63027C7.73899 5.63027 7.83453 5.69935 7.87274 5.85725C7.90141 5.97567 8.01606 7.31777 8.12115 8.83751C8.22625 10.3572 8.3409 11.6796 8.36956 11.7783C8.41733 11.9263 8.56064 11.9461 9.55427 11.9461H10.6817L10.9683 11.6105C11.7804 10.6533 12.2676 9.61711 12.3823 8.61053L12.4492 7.99869H11.9046H11.3696V7.60396V7.20922H11.8473C12.153 7.20922 12.325 7.16975 12.325 7.0908C12.325 7.03159 12.2294 6.67632 12.1148 6.30132L11.9046 5.63027H11.2549H10.6052V5.23554C10.6052 4.85067 10.6052 4.8408 10.9683 4.8408L11.3218 4.83093L10.8059 4.33751C10.395 3.9329 9.33453 3.26185 9.12434 3.26185C9.09567 3.26185 9.07657 3.43948 9.07657 3.65659V4.05133H8.6944H8.31224V3.50856V2.9658H7.5479H6.78357V3.50856V4.05133H6.40141H6.01924V3.65659C6.01924 3.43948 5.99058 3.26185 5.96192 3.26185C5.77083 3.26185 4.71988 3.94277 4.28039 4.34738L3.77402 4.83093L4.13708 4.8408C4.49058 4.8408 4.49058 4.85067 4.49058 5.23554V5.63027H3.8409H3.19122L2.98103 6.30132C2.86638 6.67632 2.77083 7.03159 2.77083 7.0908C2.77083 7.16975 2.94281 7.20922 3.24854 7.20922H3.72625V7.60396V7.99869H3.19122H2.65618L2.72306 8.52172C2.85682 9.59738 3.26765 10.525 4.03198 11.4625L4.4237 11.9461H5.60841C6.5065 11.9461 6.78357 11.9165 6.78357 11.8178Z" fill="#202020"/>
</svg>
