<svg width="60" height="60" viewBox="0 0 60 60" fill="none" xmlns="http://www.w3.org/2000/svg">
<g clip-path="url(#clip0)">
<path d="M14.3478 42.8948H45.6522C53.7391 42.8948 60 34.4738 60 26.8422C60 19.4738 54.2609 11.3159 46.4348 10.7896C44.6087 4.73694 39.1304 0.263254 32.6087 0.263254C25.8261 9.58145e-05 20.087 4.73694 18.7826 11.3159C17.2174 10.7896 15.913 10.5264 14.3478 10.5264C6.26087 10.5264 0 18.9475 0 26.579C0 34.2106 6.26087 42.8948 14.3478 42.8948ZM14.3478 13.158C15.913 13.158 17.7391 13.4211 19.0435 14.2106C19.3043 14.4738 19.8261 14.4738 20.3478 14.2106C20.6087 13.9475 20.8696 13.6843 21.1304 13.158C21.913 7.10536 26.8696 2.63167 32.6087 2.63167C38.087 2.63167 43.0435 6.57904 44.087 12.1054C44.3478 12.6317 44.8696 13.158 45.3913 13.158H45.6522C52.1739 13.158 57.3913 20.5264 57.3913 26.579C57.3913 32.6317 52.1739 40.0001 45.6522 40.0001H14.3478C7.82609 40.2633 2.6087 32.8948 2.6087 26.579C2.6087 20.2633 7.82609 13.158 14.3478 13.158Z" fill="#231F20"/>
<path d="M16.9565 48.158V58.6843C16.9565 59.4737 17.4783 60.0001 18.2609 60.0001C19.0435 60.0001 19.5652 59.4737 19.5652 58.6843V48.158C19.5652 47.3685 19.0435 46.8422 18.2609 46.8422C17.4783 46.8422 16.9565 47.3685 16.9565 48.158Z" fill="#231F20"/>
<path d="M32.6086 48.158V58.6843C32.6086 59.4737 33.1304 60.0001 33.913 60.0001C34.6956 60.0001 35.2173 59.4737 35.2173 58.6843V48.158C35.2173 47.3685 34.6956 46.8422 33.913 46.8422C33.1304 46.8422 32.6086 47.3685 32.6086 48.158Z" fill="#231F20"/>
<path d="M24.7827 48.158V53.4211C24.7827 54.2106 25.3045 54.7369 26.0871 54.7369C26.8697 54.7369 27.3914 54.2106 27.3914 53.4211V48.158C27.3914 47.3685 26.8697 46.8422 26.0871 46.8422C25.3045 46.8422 24.7827 47.3685 24.7827 48.158Z" fill="#231F20"/>
<path d="M40.4348 48.158V53.4211C40.4348 54.2106 40.9566 54.7369 41.7392 54.7369C42.5218 54.7369 43.0435 54.2106 43.0435 53.4211V48.158C43.0435 47.3685 42.5218 46.8422 41.7392 46.8422C40.9566 46.8422 40.4348 47.3685 40.4348 48.158Z" fill="#231F20"/>
</g>
<defs>
<clipPath id="clip0">
<rect width="60" height="60" fill="white"/>
</clipPath>
</defs>
</svg>
