<svg width="60" height="60" viewBox="0 0 60 60" fill="none" xmlns="http://www.w3.org/2000/svg">
<g clip-path="url(#clip0)">
<path d="M59.9996 25.5637C59.9996 17.7376 54.0737 10.955 47.1601 10.6942C45.4317 4.69416 40.2465 0.259379 34.0737 0.259379C27.6539 -0.00149089 22.2218 4.69416 20.7403 11.2159C19.5058 10.6942 18.0243 10.4333 16.7897 10.4333C9.38231 10.4333 3.20947 17.2159 3.20947 25.5637C3.20947 33.9116 9.38231 40.6942 16.7897 40.6942H46.4193C53.5798 40.4333 59.9996 33.6507 59.9996 25.5637ZM5.67861 25.5637C5.67861 18.7811 10.6169 13.042 16.7897 13.042C18.2712 13.042 19.7527 13.3029 21.2342 14.0855C21.4811 14.3463 21.9749 14.3463 22.4687 14.0855C22.7156 13.8246 22.9626 13.5637 22.9626 13.042C23.7033 7.04199 28.3947 2.6072 33.8268 2.6072C39.0119 2.6072 43.7033 6.52025 44.691 11.9985C44.691 12.5202 45.1848 13.042 45.9255 13.042H46.1724C52.0984 13.042 57.2836 18.7811 57.2836 25.5637C57.2836 32.3463 52.0984 38.0855 46.1724 38.0855H16.5428C10.6169 37.8246 5.67861 32.0855 5.67861 25.5637Z" fill="#231F20"/>
<path d="M14.5675 44.6149C14.0737 44.0932 13.3329 44.0932 12.8391 44.6149L6.66627 51.1367C6.17244 51.6584 6.17244 52.441 6.66627 52.9628C6.91318 53.2236 7.1601 53.2236 7.65392 53.2236C7.90084 53.2236 8.39466 53.2236 8.64158 52.9628L14.8144 46.441C14.8144 46.1802 14.8144 45.1367 14.5675 44.6149Z" fill="#231F20"/>
<path d="M24.4442 44.6149C23.9504 44.0932 23.2096 44.0932 22.7158 44.6149L16.543 51.1367C16.0492 51.6584 16.0492 52.441 16.543 52.9628C16.7899 53.2236 17.0368 53.2236 17.5306 53.2236C17.7775 53.2236 18.2714 53.2236 18.5183 52.9628L24.6911 46.441C24.6911 46.1802 24.6911 45.1367 24.4442 44.6149Z" fill="#231F20"/>
<path d="M34.3207 44.6149C33.8269 44.0932 33.0861 44.0932 32.5923 44.6149L26.4194 51.1367C25.9256 51.6584 25.9256 52.441 26.4194 52.9628C26.6664 53.2236 26.9133 53.2236 27.4071 53.2236C27.654 53.2236 28.1478 53.2236 28.3948 52.9628L34.5676 46.441C34.5676 46.1802 34.5676 45.1367 34.3207 44.6149Z" fill="#231F20"/>
<path d="M42.2224 44.6097L36.0496 51.1315C35.5557 51.6532 35.5557 52.4358 36.0496 52.9575C36.2965 53.2184 36.5434 53.2184 37.0372 53.2184C37.2841 53.2184 37.778 53.2184 38.0249 52.9575L44.1977 46.4358C44.6915 45.9141 44.6915 45.1315 44.1977 44.6097C43.7039 44.3488 42.7162 44.3488 42.2224 44.6097Z" fill="#231F20"/>
<path d="M32.3459 55.0394L29.8767 57.6481C29.3829 58.1698 29.3829 58.9524 29.8767 59.4742C30.1236 59.735 30.3705 59.7351 30.8644 59.7351C31.1113 59.7351 31.6051 59.735 31.852 59.4742L34.3212 56.8655C34.815 56.3437 34.815 55.5611 34.3212 55.0394C33.8273 54.7785 32.8397 54.7785 32.3459 55.0394Z" fill="#231F20"/>
<path d="M22.4694 55.0444L20.0003 57.6531C19.5064 58.1748 19.5064 58.9574 20.0003 59.4792C20.2472 60.0009 20.741 60.0009 20.9879 60.0009C21.2348 60.0009 21.7286 60.0009 21.9756 59.74L24.4447 57.1314C24.9385 56.6096 24.9385 55.827 24.4447 55.3053C23.9509 54.7835 22.9632 54.7835 22.4694 55.0444Z" fill="#231F20"/>
<path d="M12.5929 55.0444L10.1238 57.6531C9.62996 58.1748 9.62996 58.9574 10.1238 59.4792C10.3707 60.0009 10.8645 60.0009 11.1114 60.0009C11.3584 60.0009 11.8522 60.0009 12.0991 59.74L14.5682 57.1314C15.0621 56.6096 15.0621 55.827 14.5682 55.3053C14.0744 54.7835 13.0868 54.7835 12.5929 55.0444Z" fill="#231F20"/>
<path d="M2.71622 55.0444L0.247079 57.6531C-0.246748 58.1748 -0.246748 58.9574 0.247079 59.4792C0.493993 60.0009 0.98782 60.0009 1.23473 60.0009C1.48165 60.0009 1.97547 60.0009 2.22239 59.74L4.69152 57.1314C5.18535 56.6096 5.18535 55.827 4.69152 55.3053C4.1977 54.7835 3.21004 54.7835 2.71622 55.0444Z" fill="#231F20"/>
</g>
<defs>
<clipPath id="clip0">
<rect width="60" height="60" fill="white"/>
</clipPath>
</defs>
</svg>
