<svg width="10" height="25" viewBox="0 0 10 25" fill="none" xmlns="http://www.w3.org/2000/svg">
<g clip-path="url(#clip0)">
<path d="M8 15.8V3.7C8 1.7 6.7 0 5 0C3.3 0 2 1.7 2 3.7V15.8C0.7 16.7 0 18.2 0 19.8C0 22.6 2.2 24.8 5 24.8C7.8 24.8 10 22.6 10 19.8C10 18.2 9.3 16.7 8 15.8ZM5 23.8C2.8 23.8 1 22 1 19.8C1 18.5 1.7 17.2 2.8 16.5C2.9 16.3 3 16.2 3 16V3.7C3 2.2 3.9 1 5 1C6.1 1 7 2.2 7 3.7V16C7 16.2 7.1 16.3 7.2 16.4C8.3 17.1 9 18.4 9 19.7C9 22 7.2 23.8 5 23.8Z" fill="#231F20"/>
<path d="M6 17.7V4.3C6 3.6 5.6 3 5 3C4.4 3 4 3.6 4 4.3V17.7C3.1 18.1 2.5 19 2.5 20C2.5 21.4 3.6 22.5 5 22.5C6.4 22.5 7.5 21.4 7.5 20C7.5 19 6.9 18.1 6 17.7Z" fill="#231F20"/>
</g>
<defs>
<clipPath id="clip0">
<rect width="10" height="24.8" fill="white"/>
</clipPath>
</defs>
</svg>
