<svg width="60" height="60" viewBox="0 0 60 60" fill="none" xmlns="http://www.w3.org/2000/svg">
<path d="M46.4348 9.63855C44.6087 4.09639 39.1304 0 32.6087 0C25.8261 0 20.087 4.33735 18.7826 10.3614C17.2174 9.87952 15.913 9.63855 14.3478 9.63855C6.52174 9.63855 0 16.1446 0 23.6145C0 31.0843 6.52174 37.5904 14.3478 37.5904H45.6522C53.4783 37.5904 60 31.0843 60 23.6145C60 16.3855 53.7391 10.1205 46.4348 9.63855ZM45.6522 35.1807H14.3478C8.08696 35.1807 2.6087 29.6386 2.6087 23.6145C2.6087 17.3494 8.08696 12.0482 14.3478 12.0482C15.913 12.0482 17.7391 12.2892 19.0435 13.012C19.3043 13.253 19.8261 13.253 20.3478 13.012C20.6087 12.7711 20.8696 12.5301 21.1304 12.0482C21.913 6.50602 26.8696 2.40964 32.6087 2.40964C38.087 2.40964 43.0435 6.0241 44.087 11.0843C44.3478 11.5663 44.8696 12.0482 45.3913 12.0482H45.6522C51.913 12.0482 57.3913 17.3494 57.3913 23.6145C57.3913 29.6386 51.913 35.1807 45.6522 35.1807Z" fill="#231F20"/>
<path d="M18.2609 59.5181C18.5218 59.7591 18.7827 59.7591 19.0435 59.7591C19.3044 59.7591 19.8262 59.5181 20.087 59.2771L28.4348 51.3253C28.6957 51.0844 28.9566 50.3615 28.6957 50.1205C28.4348 49.6386 27.9131 49.3976 27.3914 49.3976H24.2609L29.4783 44.8193C30.0001 44.3374 30.0001 43.6145 29.4783 43.1326C28.9566 42.6506 28.174 42.6506 27.6522 43.1326L20.087 49.6386C19.5653 49.8796 19.5653 50.6024 19.8262 50.8434C20.087 51.3253 20.6088 51.5663 21.1305 51.5663H24.5218L18.2609 57.8314C17.7392 58.3133 17.7392 59.0362 18.2609 59.5181Z" fill="#231F20"/>
<path d="M36.7826 50.3615L43.3043 44.3374C43.8261 43.8554 43.8261 43.1326 43.3043 42.6506C42.7826 42.1687 42 42.1687 41.4782 42.6506L34.9565 48.6747C34.4348 49.1567 34.4348 49.8795 34.9565 50.3615C35.2174 50.6024 35.4782 50.6024 36 50.6024C36.2608 50.6024 36.5217 50.3615 36.7826 50.3615Z" fill="#231F20"/>
<path d="M10.6957 50.3615L17.2174 44.3374C17.7391 43.8554 17.7391 43.1326 17.2174 42.6506C16.6957 42.1687 15.9131 42.1687 15.3913 42.6506L8.86958 48.6747C8.34784 49.1567 8.34784 49.8795 8.86958 50.3615C9.13045 50.3615 9.39131 50.6024 9.91305 50.6024C10.1739 50.6024 10.4348 50.3615 10.6957 50.3615Z" fill="#231F20"/>
</svg>
