<svg width="20" height="14" viewBox="0 0 20 14" fill="none" xmlns="http://www.w3.org/2000/svg">
<g clip-path="url(#clip0)">
<path d="M4.90576 4.21336C4.90576 4.47336 5.05671 4.6467 5.28312 4.6467H14.3397C14.5661 4.6467 14.7171 4.47336 14.7171 4.21336C14.7171 3.95336 14.5661 3.78003 14.3397 3.78003H5.28312C5.05671 3.78003 4.90576 3.95336 4.90576 4.21336Z" fill="#231F20"/>
<path d="M19.9999 3.52002C19.9999 2.04669 19.0188 0.400024 17.5849 0.400024C17.3584 0.400024 17.2075 0.573358 17.2075 0.833358C17.2075 1.09336 17.3584 1.26669 17.5849 1.26669C18.4905 1.26669 19.2452 2.48002 19.2452 3.52002C19.2452 4.56002 18.4905 5.42669 17.5849 5.42669H6.7924C6.56598 5.42669 6.41504 5.60002 6.41504 5.86002C6.41504 6.12002 6.56598 6.38002 6.7924 6.38002H17.5849C18.9433 6.38002 19.9999 5.08002 19.9999 3.52002Z" fill="#231F20"/>
<path d="M19.2451 10.54C19.2451 8.98003 18.1884 7.16003 16.83 7.16003H3.77335C3.54694 7.16003 3.396 7.33337 3.396 7.59337C3.396 7.85337 3.54694 8.11337 3.77335 8.11337H16.83C17.7356 8.11337 18.4903 9.50003 18.4903 10.6267C18.4903 11.7534 17.7356 12.62 16.83 12.62C16.6035 12.62 16.4526 12.7934 16.4526 13.0534C16.4526 13.3134 16.6035 13.4867 16.83 13.4867C18.1884 13.4 19.2451 12.1 19.2451 10.54Z" fill="#231F20"/>
<path d="M1.13184 4.21336C1.13184 4.47336 1.28278 4.6467 1.50919 4.6467H3.77335C3.99976 4.6467 4.1507 4.47336 4.1507 4.21336C4.1507 3.95336 3.99976 3.78003 3.77335 3.78003H1.50919C1.28278 3.78003 1.13184 3.95336 1.13184 4.21336Z" fill="#231F20"/>
<path d="M0 8.11337H2.26415C2.49057 8.11337 2.64151 7.94004 2.64151 7.68004C2.64151 7.42004 2.49057 7.2467 2.26415 7.2467H0" fill="#231F20"/>
<path d="M3.01896 6.37997H5.28311C5.50953 6.37997 5.66047 6.20664 5.66047 5.94664C5.66047 5.68664 5.50953 5.51331 5.28311 5.51331H3.01896C2.79254 5.51331 2.6416 5.68664 2.6416 5.94664C2.6416 6.20664 2.79254 6.37997 3.01896 6.37997Z" fill="#231F20"/>
</g>
<defs>
<clipPath id="clip0">
<rect width="20" height="13" fill="white" transform="translate(0 0.400024)"/>
</clipPath>
</defs>
</svg>
