<svg width="19" height="19" viewBox="0 0 19 19" fill="none" xmlns="http://www.w3.org/2000/svg">
<path fill-rule="evenodd" clip-rule="evenodd" d="M13.9706 5.36324C14.1658 5.16798 14.1658 4.8514 13.9706 4.65614C13.7753 4.46087 13.4587 4.46087 13.2635 4.65614L9.31444 8.60515L5.36541 4.65612C5.17015 4.46086 4.85356 4.46086 4.6583 4.65612C4.46304 4.85138 4.46304 5.16797 4.6583 5.36323L8.60733 9.31226L4.65613 13.2635C4.46086 13.4587 4.46086 13.7753 4.65613 13.9706C4.85139 14.1658 5.16797 14.1658 5.36323 13.9706L9.31444 10.0194L13.2656 13.9706C13.4609 14.1658 13.7775 14.1658 13.9727 13.9706C14.168 13.7753 14.168 13.4587 13.9727 13.2634L10.0215 9.31226L13.9706 5.36324Z" fill="white"/>
</svg>
