<svg width="19" height="19" viewBox="0 0 19 19" fill="none" xmlns="http://www.w3.org/2000/svg">
<path fill-rule="evenodd" clip-rule="evenodd" d="M13.9706 5.36324C14.1659 5.16798 14.1659 4.8514 13.9706 4.65614C13.7753 4.46087 13.4587 4.46087 13.2635 4.65614L9.31447 8.60515L5.36544 4.65612C5.17018 4.46086 4.85359 4.46086 4.65833 4.65612C4.46307 4.85138 4.46307 5.16797 4.65833 5.36323L8.60736 9.31226L4.65616 13.2635C4.46089 13.4587 4.46089 13.7753 4.65616 13.9706C4.85142 14.1658 5.168 14.1658 5.36326 13.9706L9.31447 10.0194L13.2657 13.9706C13.4609 14.1658 13.7775 14.1658 13.9728 13.9706C14.168 13.7753 14.168 13.4587 13.9728 13.2634L10.0216 9.31226L13.9706 5.36324Z" fill="#202020"/>
</svg>
