<svg width="12" height="12" viewBox="0 0 12 12" fill="none" xmlns="http://www.w3.org/2000/svg">
<path d="M11.7702 10.6435L9.67955 8.52468C10.2985 7.64247 10.6661 6.56711 10.6661 5.40442C10.6661 2.42439 8.27366 0 5.33294 0C2.39221 0 0 2.42439 0 5.40442C0 8.38423 2.39221 10.8086 5.33294 10.8086C6.56144 10.8086 7.69076 10.3815 8.59321 9.67165L10.6611 11.7671C10.8141 11.9222 11.0152 12 11.2156 12C11.4165 12 11.6172 11.9224 11.7702 11.7671C12.0766 11.4571 12.0766 10.954 11.7702 10.6435ZM1.25513 5.40463C1.25513 3.12579 3.08478 1.2719 5.33336 1.2719C7.58194 1.2719 9.41158 3.12579 9.41158 5.40463C9.41158 6.35272 9.09183 7.22473 8.55966 7.92294C8.38375 8.15348 8.18623 8.36617 7.96691 8.55464C7.25568 9.16616 6.33708 9.53736 5.33336 9.53736C3.08457 9.53715 1.25513 7.68326 1.25513 5.40463Z" fill="white"/>
</svg>
